<svg xmlns="http://www.w3.org/2000/svg" width="32" height="32" viewBox="0 0 32 32">
  <g id="그룹_7632" data-name="그룹 7632" transform="translate(32)">
    <g id="패스_14773" data-name="패스 14773" transform="translate(-32)" fill="#fff">
      <path d="M 29.03005981445312 31.5 L 2.969939947128296 31.5 C 1.608010053634644 31.5 0.5 30.38751983642578 0.5 29.02009963989258 L 0.5 2.979899883270264 C 0.5 1.612480044364929 1.608010053634644 0.5 2.969939947128296 0.5 L 29.03005981445312 0.5 C 30.39199066162109 0.5 31.5 1.612480044364929 31.5 2.979899883270264 L 31.5 29.02009963989258 C 31.5 30.38751983642578 30.39199066162109 31.5 29.03005981445312 31.5 Z" stroke="none"/>
      <path d="M 2.969940185546875 1 C 1.883710861206055 1 1 1.888179779052734 1 2.979900360107422 L 1 29.02009963989258 C 1 30.11182022094727 1.883710861206055 31 2.969940185546875 31 L 29.03005981445312 31 C 30.11628913879395 31 31 30.11182022094727 31 29.02009963989258 L 31 2.979900360107422 C 31 1.888179779052734 30.11628913879395 1 29.03005981445312 1 L 2.969940185546875 1 M 2.969940185546875 0 L 29.03005981445312 0 C 30.67031097412109 0 32 1.334150314331055 32 2.979900360107422 L 32 29.02009963989258 C 32 30.66584968566895 30.67031097412109 32 29.03005981445312 32 L 2.969940185546875 32 C 1.329690933227539 32 0 30.66584968566895 0 29.02009963989258 L 0 2.979900360107422 C 0 1.334150314331055 1.329690933227539 0 2.969940185546875 0 Z" stroke="none" fill="#bbb"/>
    </g>
    <g id="그룹_7627" data-name="그룹 7627" transform="translate(-30 4)">
      <rect id="사각형_5233" data-name="사각형 5233" width="24" height="24" fill="none"/>
      <g id="그룹_7043" data-name="그룹 7043" transform="translate(1.338 4.892)">
        <g id="그룹_6974" data-name="그룹 6974" transform="translate(7.108 0) rotate(45)">
          <rect id="사각형_447" data-name="사각형 447" width="1.774" height="10.052" transform="translate(8.278)" fill="#222"/>
          <rect id="사각형_448" data-name="사각형 448" width="1.774" height="10.052" transform="translate(0 1.774) rotate(-90)" fill="#222"/>
        </g>
        <g id="그룹_6975" data-name="그룹 6975" transform="translate(14.216 0) rotate(45)">
          <rect id="사각형_447-2" data-name="사각형 447" width="1.774" height="10.052" transform="translate(8.278)" fill="#222"/>
          <rect id="사각형_448-2" data-name="사각형 448" width="1.774" height="10.052" transform="translate(0 1.774) rotate(-90)" fill="#222"/>
        </g>
      </g>
    </g>
  </g>
</svg>
