<svg xmlns="http://www.w3.org/2000/svg" width="16.481" height="12.816" viewBox="0 0 16.481 12.816">
  <path id="Icon_awesome-home" data-name="Icon awesome-home" d="M8.021,5.578,2.746,9.923v4.689a.458.458,0,0,0,.458.458l3.206-.008a.458.458,0,0,0,.455-.458V11.865a.458.458,0,0,1,.458-.458H9.154a.458.458,0,0,1,.458.458V14.6a.458.458,0,0,0,.458.459l3.205.009a.458.458,0,0,0,.458-.458V9.92L8.459,5.578A.349.349,0,0,0,8.021,5.578Zm8.332,2.953L13.962,6.56V2.6a.343.343,0,0,0-.343-.343h-1.6a.343.343,0,0,0-.343.343V4.674L9.111,2.567a1.373,1.373,0,0,0-1.745,0L.124,8.531a.343.343,0,0,0-.046.484l.73.887a.343.343,0,0,0,.484.047l6.73-5.543a.349.349,0,0,1,.438,0l6.73,5.543a.343.343,0,0,0,.484-.046l.73-.887a.343.343,0,0,0-.049-.484Z" transform="translate(0.001 -2.254)" fill="#999"/>
</svg>
