<svg xmlns="http://www.w3.org/2000/svg" width="32" height="32" viewBox="0 0 32 32">
  <g id="그룹_7628" data-name="그룹 7628" transform="translate(-37.893 -0.108)">
    <g id="패스_14774" data-name="패스 14774" transform="translate(37.893 0.108)" fill="#fff">
      <path d="M 29 31.5 L 3 31.5 C 1.621500015258789 31.5 0.5 30.37849998474121 0.5 29 L 0.5 3 C 0.5 1.621500015258789 1.621500015258789 0.5 3 0.5 L 29 0.5 C 30.37849998474121 0.5 31.5 1.621500015258789 31.5 3 L 31.5 29 C 31.5 30.37849998474121 30.37849998474121 31.5 29 31.5 Z" stroke="none"/>
      <path d="M 3 1 C 1.897199630737305 1 1 1.897199630737305 1 3 L 1 29 C 1 30.1028003692627 1.897199630737305 31 3 31 L 29 31 C 30.1028003692627 31 31 30.1028003692627 31 29 L 31 3 C 31 1.897199630737305 30.1028003692627 1 29 1 L 3 1 M 3 0 L 29 0 C 30.65685081481934 0 32 1.3431396484375 32 3 L 32 29 C 32 30.65685081481934 30.65685081481934 32 29 32 L 3 32 C 1.3431396484375 32 0 30.65685081481934 0 29 L 0 3 C 0 1.3431396484375 1.3431396484375 0 3 0 Z" stroke="none" fill="#bbb"/>
    </g>
    <g id="그룹_7630" data-name="그룹 7630" transform="translate(-1490.811 -202.617)">
      <g id="그룹_6974" data-name="그룹 6974" transform="translate(1553.919 218.725) rotate(135)">
        <rect id="사각형_447" data-name="사각형 447" width="1.774" height="10.052" transform="translate(8.278 0)" fill="#222"/>
        <rect id="사각형_448" data-name="사각형 448" width="1.774" height="10.052" transform="translate(10.052 8.278) rotate(90)" fill="#222"/>
      </g>
    </g>
  </g>
</svg>
